# xmcd
#
# Track frame offsets:
#	150
#	13507
#	25186
#	38165
#	48532
#	58406
#	70200
#	79867
#	85924
#	97626
#	109474
#	121088
#	133089
#	144580
#	156814
#	171185
#	186659
#	200401
#	214849
#	228706
#	242780
#	256117
#	267970
#	277812
#	290245
#
# Disc length: 4056 seconds
#
# Revision: 1
# Processed by: cddbd v1.5.2PL0 Copyright (c) Steve Scherf et al.
# Submitted via: audiograbber 1.83.01
#
DISCID=750fd619
DTITLE=Ernest Tubb - Best Of Ernest Tubb  Vol1
DYEAR=1900
DGENRE=Country
TTITLE0=Im The One Who Loves You
TTITLE1=Throw Your Love My Way
TTITLE2=Too Old To Cut The Mustard ( Red Foley )
TTITLE3=Mr Jukebox
TTITLE4=Whos Gonna Take The Garbage Out 
TTITLE5=There She Goes
TTITLE6=Pick Me Up On Your Way Down
TTITLE7=Thanks A Lot
TTITLE8=Sweet Thing
TTITLE9=Oklahoma Hills
TTITLE10=In The Jailhouse Now
TTITLE11=An Old Fashioned Photograph
TTITLE12=Love Was Right There All The Time
TTITLE13=Mr And Mrs Used To Be
TTITLE14=Lets Say Goodbye Like We Said Hello
TTITLE15=Its Been So Long Darling
TTITLE16=Goodnight Irene
TTITLE17=Fillipino Baby
TTITLE18=Give Me A Little Old Fashioned Love
TTITLE19=The Chicken Song
TTITLE20=Family Bible
TTITLE21=Candy Kisses
TTITLE22=Dont Be Ashamed Of Your Age ( Red Foley )
TTITLE23=Cold Cold Heart
TTITLE24=Born To Loose
EXTD=
EXTT0=
EXTT1=
EXTT2=
EXTT3=
EXTT4=
EXTT5=
EXTT6=
EXTT7=
EXTT8=
EXTT9=
EXTT10=
EXTT11=
EXTT12=
EXTT13=
EXTT14=
EXTT15=
EXTT16=
EXTT17=
EXTT18=
EXTT19=
EXTT20=
EXTT21=
EXTT22=
EXTT23=
EXTT24=
PLAYORDER=
